<svg width="60" height="60" viewBox="0 0 60 60" fill="none" xmlns="http://www.w3.org/2000/svg">
<path d="M24.7217 49.1397C25.079 47.806 26.45 47.0147 27.7835 47.372C29.1173 47.7292 29.9088 49.1003 29.5513 50.4338L28.9042 52.8487C28.547 54.1823 27.176 54.9737 25.8425 54.6165C24.5087 54.259 23.7173 52.8882 24.0746 51.5545L24.7217 49.1397ZM19.2336 44.4838C20.5672 44.8413 21.3587 46.212 21.0013 47.5457L20.3543 49.9605C19.9969 51.2943 18.6261 52.0857 17.2924 51.7282C15.9587 51.371 15.1673 50 15.5246 48.6665L16.1717 46.2515C16.529 44.918 17.8999 44.1265 19.2336 44.4838ZM37.5675 44.4838C38.9013 44.8413 39.6927 46.212 39.3353 47.5457L38.6882 49.9605C38.331 51.2943 36.96 52.0857 35.6265 51.7282C34.2927 51.371 33.5012 50 33.8585 48.6665L34.5058 46.2515C34.863 44.918 36.2338 44.1265 37.5675 44.4838ZM30.3717 37.7127C31.7055 38.07 32.4967 39.441 32.1395 40.7745L31.4925 43.1895C31.135 44.523 29.7642 45.3145 28.4305 44.9573C27.097 44.5998 26.3055 43.229 26.6628 41.8953L27.31 39.4805C27.6672 38.1468 29.038 37.3555 30.3717 37.7127ZM28.75 5C35.714 5 41.65 9.37885 43.964 15.5299C50.325 17.2691 55 23.0865 55 30C55 34.088 53.3613 37.7975 50.711 40.5003C50.1803 41.0415 49.6087 41.5425 49.0015 41.9987C47.8975 42.828 46.3305 42.6055 45.5013 41.5015C44.672 40.3975 44.8945 38.8305 45.9985 38.0012C46.4043 37.6965 46.786 37.3615 47.1408 36.9998C48.912 35.1933 50 32.7262 50 30C50 25.0362 46.381 20.9131 41.638 20.1331C40.6635 19.9728 39.8693 19.2583 39.6102 18.3013C38.315 13.5166 33.94 10 28.75 10C22.5368 10 17.5 15.0368 17.5 21.25C17.5 21.6727 17.5232 22.0891 17.5682 22.4981C17.7073 23.7618 16.8877 24.9195 15.6713 25.224C12.4117 26.0397 10 28.9913 10 32.5C10 34.7397 10.9786 36.7478 12.5398 38.1258C13.575 39.0392 13.6734 40.6192 12.7598 41.6542C11.8461 42.6895 10.2663 42.788 9.2311 41.8743C6.64017 39.5875 5 36.2337 5 32.5C5 27.3715 8.0867 22.9687 12.5013 21.0403C12.6136 12.1623 19.8454 5 28.75 5ZM21.8217 34.8245C23.1554 35.182 23.9469 36.5527 23.5895 37.8865L22.9425 40.3013C22.5851 41.635 21.2143 42.4263 19.8806 42.069C18.547 41.7118 17.7555 40.3407 18.1129 39.0072L18.7599 36.5923C19.1173 35.2587 20.4881 34.4673 21.8217 34.8245ZM40.1558 34.8245C41.4895 35.182 42.2808 36.5527 41.9235 37.8865L41.2765 40.3013C40.919 41.635 39.5482 42.4265 38.2145 42.069C36.881 41.7118 36.0895 40.3407 36.4468 39.0072L37.0938 36.5923C37.4512 35.2587 38.822 34.4673 40.1558 34.8245Z" fill="#040EF9"/>
</svg>
